#Comment line ignore any data following # character 
#Hierarchical Translation and Rotation (.htr) file 
[Header]	
#Header keywords are followed by a single value 
FileType HTR		#Single word string
DataType HTRS		#Translation followed by rotation and scale data
FileVersion 1		#integer
NumSegments 84		#integer
NumFrames 2		#integer
DataFrameRate 30		#integer, data frame rate in this file
EulerRotationOrder ZYX
CalibrationUnits mm
RotationUnits Degrees
GlobalAxisofGravity Y
BoneLengthAxis Y
ScaleFactor 1.00
[SegmentNames&Hierarchy]
#CHILD	PARENT
MASTER GLOBAL
root MASTER
chest root
L_mid_tent01 root
R_mid_tent01 root
spine01 root
Bip01_Neck chest
L_humerus chest
R_humerus chest
weapon_bone chest
Bip01_Head Bip01_Neck
eye_left_bone Bip01_Head
eye_right_bone Bip01_Head
L_forearm L_humerus
L_front_hand L_forearm
L_weapon_bone L_forearm
L_front_hand01_01 L_front_hand
L_front_hand02_01 L_front_hand
L_front_hand03_01 L_front_hand
L_front_hand01_02 L_front_hand01_01
L_front_hand02_02 L_front_hand02_01
L_front_hand03_02 L_front_hand03_01
R_forearm R_humerus
R_front_hand R_forearm
R_weapon_bone R_forearm
R_front_hand01_01 R_front_hand
R_front_hand02_01 R_front_hand
R_front_hand03_01 R_front_hand
R_front_hand01_02 R_front_hand01_01
R_front_hand02_02 R_front_hand02_01
R_front_hand03_02 R_front_hand03_01
null_rope01_connect L_mid_tent01
Rope1_Seg01 null_rope01_connect
Rope1_Seg02 Rope1_Seg01
Rope1_Seg03 Rope1_Seg02
Rope1_Seg04 Rope1_Seg03
Rope1_Seg05 Rope1_Seg04
Rope1_Seg06 Rope1_Seg05
Rope1_Seg07 Rope1_Seg06
Rope1_Seg09 Rope1_Seg07
L_mid_hand01 Rope1_Seg09
L_mid_hand02 Rope1_Seg09
L_mid_hand03 Rope1_Seg09
null_rope02_connect R_mid_tent01
Rope2_Seg01 null_rope02_connect
Rope2_Seg02 Rope2_Seg01
Rope2_Seg03 Rope2_Seg02
Rope2_Seg04 Rope2_Seg03
Rope2_Seg05 Rope2_Seg04
Rope2_Seg06 Rope2_Seg05
Rope2_Seg07 Rope2_Seg06
Rope2_Seg09 Rope2_Seg07
R_mid_hand01 Rope2_Seg09
R_mid_hand02 Rope2_Seg09
R_mid_hand03 Rope2_Seg09
spine02 spine01
spine03 spine02
pelvis spine03
null_rope03_connect pelvis
null_rope04_connect pelvis
Rope3_Seg01 null_rope03_connect
Rope3_Seg02 Rope3_Seg01
Rope3_Seg03 Rope3_Seg02
Rope3_Seg04 Rope3_Seg03
Rope3_Seg05 Rope3_Seg04
Rope3_Seg06 Rope3_Seg05
Rope3_Seg07 Rope3_Seg06
Rope3_Seg08 Rope3_Seg07
Rope3_Seg09 Rope3_Seg08
R_rear_hand01 Rope3_Seg09
R_rear_hand02 Rope3_Seg09
R_rear_hand03 Rope3_Seg09
Rope4_Seg01 null_rope04_connect
Rope4_Seg02 Rope4_Seg01
Rope4_Seg03 Rope4_Seg02
Rope4_Seg04 Rope4_Seg03
Rope4_Seg05 Rope4_Seg04
Rope4_Seg06 Rope4_Seg05
Rope4_Seg07 Rope4_Seg06
Rope4_Seg08 Rope4_Seg07
Rope4_Seg09 Rope4_Seg08
L_rear_hand01 Rope4_Seg09
L_rear_hand02 Rope4_Seg09
L_rear_hand03 Rope4_Seg09
[BasePosition]
#SegmentName Tx, Ty, Tz, Rx, Ry, Rz, BoneLength
MASTER 0.000000 0.000000 0.000000 -90.000000 0.000000 0.000000 10.000000 
root 0.000000 0.000000 0.000000 0.000000 0.000000 0.000000 10.000000 
chest 0.000000 0.000000 0.000000 0.000000 0.000000 0.000000 10.000000 
L_mid_tent01 0.000000 0.000000 0.000000 0.000000 0.000000 0.000000 10.000000 
R_mid_tent01 0.000000 0.000000 0.000000 0.000000 0.000000 0.000000 10.000000 
spine01 0.000000 0.000000 0.000000 0.000000 0.000000 0.000000 10.000000 
Bip01_Neck 0.000000 0.000000 0.000000 0.000000 0.000000 0.000000 10.000000 
L_humerus 0.000000 0.000000 0.000000 0.000000 0.000000 0.000000 10.000000 
R_humerus 0.000000 0.000000 0.000000 0.000000 0.000000 0.000000 10.000000 
weapon_bone 0.000000 0.000000 0.000000 0.000000 0.000000 0.000000 10.000000 
Bip01_Head 0.000000 0.000000 0.000000 0.000000 0.000000 0.000000 10.000000 
eye_left_bone 0.000000 0.000000 0.000000 0.000000 0.000000 0.000000 10.000000 
eye_right_bone 0.000000 0.000000 0.000000 0.000000 0.000000 0.000000 10.000000 
L_forearm 0.000000 0.000000 0.000000 0.000000 0.000000 0.000000 10.000000 
L_front_hand 0.000000 0.000000 0.000000 0.000000 0.000000 0.000000 10.000000 
L_weapon_bone 0.000000 0.000000 0.000000 0.000000 0.000000 0.000000 10.000000 
L_front_hand01_01 0.000000 0.000000 0.000000 0.000000 0.000000 0.000000 10.000000 
L_front_hand02_01 0.000000 0.000000 0.000000 0.000000 0.000000 0.000000 10.000000 
L_front_hand03_01 0.000000 0.000000 0.000000 0.000000 0.000000 0.000000 10.000000 
L_front_hand01_02 0.000000 0.000000 0.000000 0.000000 0.000000 0.000000 10.000000 
L_front_hand02_02 0.000000 0.000000 0.000000 0.000000 0.000000 0.000000 10.000000 
L_front_hand03_02 0.000000 0.000000 0.000000 0.000000 0.000000 0.000000 10.000000 
R_forearm 0.000000 0.000000 0.000000 0.000000 0.000000 0.000000 10.000000 
R_front_hand 0.000000 0.000000 0.000000 0.000000 0.000000 0.000000 10.000000 
R_weapon_bone 0.000000 0.000000 0.000000 0.000000 0.000000 0.000000 10.000000 
R_front_hand01_01 0.000000 0.000000 0.000000 0.000000 0.000000 0.000000 10.000000 
R_front_hand02_01 0.000000 0.000000 0.000000 0.000000 0.000000 0.000000 10.000000 
R_front_hand03_01 0.000000 0.000000 0.000000 0.000000 0.000000 0.000000 10.000000 
R_front_hand01_02 0.000000 0.000000 0.000000 0.000000 0.000000 0.000000 10.000000 
R_front_hand02_02 0.000000 0.000000 0.000000 0.000000 0.000000 0.000000 10.000000 
R_front_hand03_02 0.000000 0.000000 0.000000 0.000000 0.000000 0.000000 10.000000 
null_rope01_connect 0.000000 0.000000 0.000000 0.000000 0.000000 0.000000 10.000000 
Rope1_Seg01 0.000000 0.000000 0.000000 0.000000 0.000000 0.000000 10.000000 
Rope1_Seg02 0.000000 0.000000 0.000000 0.000000 0.000000 0.000000 10.000000 
Rope1_Seg03 0.000000 0.000000 0.000000 0.000000 0.000000 0.000000 10.000000 
Rope1_Seg04 0.000000 0.000000 0.000000 0.000000 0.000000 0.000000 10.000000 
Rope1_Seg05 0.000000 0.000000 0.000000 0.000000 0.000000 0.000000 10.000000 
Rope1_Seg06 0.000000 0.000000 0.000000 0.000000 0.000000 0.000000 10.000000 
Rope1_Seg07 0.000000 0.000000 0.000000 0.000000 0.000000 0.000000 10.000000 
Rope1_Seg09 0.000000 0.000000 0.000000 0.000000 0.000000 0.000000 10.000000 
L_mid_hand01 0.000000 0.000000 0.000000 0.000000 0.000000 0.000000 10.000000 
L_mid_hand02 0.000000 0.000000 0.000000 0.000000 0.000000 0.000000 10.000000 
L_mid_hand03 0.000000 0.000000 0.000000 0.000000 0.000000 0.000000 10.000000 
null_rope02_connect 0.000000 0.000000 0.000000 0.000000 0.000000 0.000000 10.000000 
Rope2_Seg01 0.000000 0.000000 0.000000 0.000000 0.000000 0.000000 10.000000 
Rope2_Seg02 0.000000 0.000000 0.000000 0.000000 0.000000 0.000000 10.000000 
Rope2_Seg03 0.000000 0.000000 0.000000 0.000000 0.000000 0.000000 10.000000 
Rope2_Seg04 0.000000 0.000000 0.000000 0.000000 0.000000 0.000000 10.000000 
Rope2_Seg05 0.000000 0.000000 0.000000 0.000000 0.000000 0.000000 10.000000 
Rope2_Seg06 0.000000 0.000000 0.000000 0.000000 0.000000 0.000000 10.000000 
Rope2_Seg07 0.000000 0.000000 0.000000 0.000000 0.000000 0.000000 10.000000 
Rope2_Seg09 0.000000 0.000000 0.000000 0.000000 0.000000 0.000000 10.000000 
R_mid_hand01 0.000000 0.000000 0.000000 0.000000 0.000000 0.000000 10.000000 
R_mid_hand02 0.000000 0.000000 0.000000 0.000000 0.000000 0.000000 10.000000 
R_mid_hand03 0.000000 0.000000 0.000000 0.000000 0.000000 0.000000 10.000000 
spine02 0.000000 0.000000 0.000000 0.000000 0.000000 0.000000 10.000000 
spine03 0.000000 0.000000 0.000000 0.000000 0.000000 0.000000 10.000000 
pelvis 0.000000 0.000000 0.000000 0.000000 0.000000 0.000000 10.000000 
null_rope03_connect 0.000000 0.000000 0.000000 0.000000 0.000000 0.000000 10.000000 
null_rope04_connect 0.000000 0.000000 0.000000 0.000000 0.000000 0.000000 10.000000 
Rope3_Seg01 0.000000 0.000000 0.000000 0.000000 0.000000 0.000000 10.000000 
Rope3_Seg02 0.000000 0.000000 0.000000 0.000000 0.000000 0.000000 10.000000 
Rope3_Seg03 0.000000 0.000000 0.000000 0.000000 0.000000 0.000000 10.000000 
Rope3_Seg04 0.000000 0.000000 0.000000 0.000000 0.000000 0.000000 10.000000 
Rope3_Seg05 0.000000 0.000000 0.000000 0.000000 0.000000 0.000000 10.000000 
Rope3_Seg06 0.000000 0.000000 0.000000 0.000000 0.000000 0.000000 10.000000 
Rope3_Seg07 0.000000 0.000000 0.000000 0.000000 0.000000 0.000000 10.000000 
Rope3_Seg08 0.000000 0.000000 0.000000 0.000000 0.000000 0.000000 10.000000 
Rope3_Seg09 0.000000 0.000000 0.000000 0.000000 0.000000 0.000000 10.000000 
R_rear_hand01 0.000000 0.000000 0.000000 0.000000 0.000000 0.000000 10.000000 
R_rear_hand02 0.000000 0.000000 0.000000 0.000000 0.000000 0.000000 10.000000 
R_rear_hand03 0.000000 0.000000 0.000000 0.000000 0.000000 0.000000 10.000000 
Rope4_Seg01 0.000000 0.000000 0.000000 0.000000 0.000000 0.000000 10.000000 
Rope4_Seg02 0.000000 0.000000 0.000000 0.000000 0.000000 0.000000 10.000000 
Rope4_Seg03 0.000000 0.000000 0.000000 0.000000 0.000000 0.000000 10.000000 
Rope4_Seg04 0.000000 0.000000 0.000000 0.000000 0.000000 0.000000 10.000000 
Rope4_Seg05 0.000000 0.000000 0.000000 0.000000 0.000000 0.000000 10.000000 
Rope4_Seg06 0.000000 0.000000 0.000000 0.000000 0.000000 0.000000 10.000000 
Rope4_Seg07 0.000000 0.000000 0.000000 0.000000 0.000000 0.000000 10.000000 
Rope4_Seg08 0.000000 0.000000 0.000000 0.000000 0.000000 0.000000 10.000000 
Rope4_Seg09 0.000000 0.000000 0.000000 0.000000 0.000000 0.000000 10.000000 
L_rear_hand01 0.000000 0.000000 0.000000 0.000000 0.000000 0.000000 10.000000 
L_rear_hand02 0.000000 0.000000 0.000000 0.000000 0.000000 0.000000 10.000000 
L_rear_hand03 0.000000 0.000000 0.000000 0.000000 0.000000 0.000000 10.000000 
#Beginning of Data. Separated by tabs
#Fr	Tx	Ty	Tz	Rx	Ry	Rz	SF
[MASTER]
7 0.000000 0.000000 0.000000 0.001660 0.001660 0.001660 0.000000
8 0.000000 0.000000 0.000000 0.001660 0.001660 0.001660 0.000000
[root]
7 -17.466677 -62.781586 1408.688354 -91.628067 -27.953823 -90.147171 1410.194824
8 -17.882784 -62.776730 1393.820801 -91.630249 -28.000299 -90.145393 1395.348267
[chest]
7 -84.512650 -34.090519 0.000000 -6.690102 3.561459 -178.975693 91.129311
8 -84.512650 -34.090519 0.000000 -6.972685 4.005182 -179.065781 91.129311
[L_mid_tent01]
7 27.299500 22.177504 -249.917999 0.443105 27.644217 72.719734 252.380875
8 27.299501 22.177498 -249.917999 -1.804346 13.862465 61.447041 252.380875
[R_mid_tent01]
7 23.228794 24.509907 226.238495 167.947815 -39.202618 75.638519 228.744751
8 23.228794 24.509907 226.238495 174.321945 -25.545719 61.283325 228.744751
[spine01]
7 -0.361383 -0.195265 0.000000 0.738333 0.459037 14.716868 0.410763
8 -0.361383 -0.195265 0.000000 0.706819 0.458037 14.584597 0.410763
[Bip01_Neck]
7 165.484543 71.581718 0.000119 175.896118 1.177290 24.871183 180.302734
8 165.484543 71.581718 0.000119 175.896118 1.177290 24.871183 180.302734
[L_humerus]
7 -13.983130 -135.272980 -120.471481 -178.071136 48.342651 -88.614975 181.680161
8 -13.983130 -135.272980 -120.471481 -176.397598 11.178950 -87.528473 181.680161
[R_humerus]
7 -13.983309 -135.273102 125.287651 -169.732468 -38.657425 -91.998413 184.909012
8 -13.983309 -135.273102 125.287651 -173.259506 -4.537557 -89.806274 184.909012
[weapon_bone]
7 235.964890 -300.705902 0.000000 0.000000 -89.951546 -128.212341 382.234833
8 235.964890 -300.705902 0.000000 0.000000 -89.951546 -128.212341 382.234833
[Bip01_Head]
7 258.889221 111.473694 -22.577265 -0.511579 5.788675 -64.764389 282.771545
8 258.143402 112.710869 -25.921345 -0.996116 5.758429 -65.071320 282.866882
[eye_left_bone]
7 -24.626970 125.451866 -64.772606 0.000000 -90.000000 -99.840431 143.318359
8 -24.626970 125.451866 -64.772606 0.000000 -90.000000 -99.840431 143.318359
[eye_right_bone]
7 -24.626970 125.451866 64.327362 0.000000 -89.960434 80.159386 143.117676
8 -24.626970 125.451866 64.327362 0.000000 -89.960434 80.159386 143.117676
[L_forearm]
7 322.776093 0.000000 -0.000119 0.000256 0.002333 -77.487419 322.776093
8 322.776093 0.000000 -0.000119 0.000178 0.002340 -81.312233 322.776093
[L_front_hand]
7 241.149185 -0.042021 -3.300071 -179.384628 -2.183402 -7.142800 241.171753
8 241.149185 -0.042021 -3.300071 -179.502182 -2.216049 -4.070026 241.171753
[L_weapon_bone]
7 156.183838 0.000000 0.000000 0.002028 0.001182 29.501062 156.183838
8 156.183838 0.000000 0.000000 0.002080 0.001087 34.802902 156.183838
[L_front_hand01_01]
7 86.095154 20.947098 -0.655860 0.405585 -0.442306 -4.620490 88.609184
8 86.095154 20.947098 -0.655860 0.405585 -0.442306 -4.620490 88.609184
[L_front_hand02_01]
7 86.935165 -11.437475 24.513514 116.959450 3.630817 1.495453 91.046425
8 86.935165 -11.437475 24.513514 116.959450 3.630817 1.495452 91.046425
[L_front_hand03_01]
7 86.637497 -14.123976 -20.424902 -118.420097 -4.656303 -0.152527 90.126129
8 86.637497 -14.123976 -20.424902 -118.420097 -4.656304 -0.152527 90.126129
[L_front_hand01_02]
7 71.020905 -0.000179 0.000030 0.001534 0.001777 -8.378850 71.020905
8 71.020905 -0.000179 0.000030 0.001534 0.001777 -8.378850 71.020905
[L_front_hand02_02]
7 71.020927 -0.000119 0.000060 0.001534 0.001777 -8.378850 71.020927
8 71.020927 -0.000119 0.000060 0.001534 0.001777 -8.378850 71.020927
[L_front_hand03_02]
7 71.020905 -0.000060 0.000060 0.001534 0.001777 -8.378850 71.020905
8 71.020905 -0.000060 0.000060 0.001534 0.001777 -8.378850 71.020905
[R_forearm]
7 322.776428 -0.000060 0.000030 0.206341 -0.045904 -78.844772 322.776428
8 322.776428 -0.000060 0.000030 0.212174 -0.026823 -83.707108 322.776428
[R_front_hand]
7 238.847015 -0.006795 2.210259 -0.797613 1.531135 -16.327341 238.857239
8 238.847015 -0.006795 2.210259 -0.638504 1.604666 -10.479078 238.857239
[R_weapon_bone]
7 155.664093 0.002503 -0.000030 0.002939 0.002216 -127.622185 155.664078
8 155.664093 0.002503 -0.000030 0.002887 0.002284 -130.296677 155.664078
[R_front_hand01_01]
7 87.624611 14.231146 22.918642 -116.960213 3.496675 -1.324139 91.683487
8 87.624611 14.231146 22.918642 -116.960213 3.496675 -1.324139 91.683487
[R_front_hand02_01]
7 89.356956 14.367283 -19.491137 118.419647 -4.257089 0.609827 92.579636
8 89.356956 14.367283 -19.491137 118.419632 -4.257088 0.609827 92.579636
[R_front_hand03_01]
7 87.286232 -22.307278 -0.143439 -0.387970 -0.231462 4.232001 90.091743
8 87.286232 -22.307278 -0.143439 -0.387970 -0.231462 4.232001 90.091743
[R_front_hand01_02]
7 71.020905 0.000060 0.000119 0.001777 0.001534 8.377221 71.020905
8 71.020905 0.000060 0.000119 0.001777 0.001534 8.377220 71.020905
[R_front_hand02_02]
7 71.020844 -0.000030 -0.000119 0.001777 0.001534 8.377221 71.020836
8 71.020844 -0.000030 -0.000119 0.001777 0.001534 8.377220 71.020836
[R_front_hand03_02]
7 71.020905 0.000000 0.000030 0.001777 0.001534 8.377221 71.020905
8 71.020905 0.000000 0.000030 0.001777 0.001534 8.377220 71.020905
[null_rope01_connect]
7 328.732483 0.000000 -0.000238 -134.544266 -60.693314 179.993301 328.732483
8 328.732483 0.000000 -0.000238 -132.698181 -74.381920 -170.903015 328.732483
[Rope1_Seg01]
7 0.000000 0.000000 0.000000 111.671364 31.498657 138.588898 0.000000
8 0.000000 0.000000 0.000000 113.995384 30.716761 143.549988 0.000000
[Rope1_Seg02]
7 139.999863 -0.000179 0.000000 -0.011261 -8.086490 0.954414 139.999863
8 139.999863 -0.000179 0.000000 0.210626 -6.583144 1.535204 139.999863
[Rope1_Seg03]
7 139.999924 0.000060 -0.000060 -1.667326 -15.836229 0.403379 139.999924
8 139.999924 0.000060 -0.000060 -0.611280 -11.122695 2.670213 139.999924
[Rope1_Seg04]
7 139.999924 -0.000060 -0.000119 -11.905750 -33.777218 -0.896911 139.999924
8 139.999924 -0.000060 -0.000119 -5.570957 -24.902998 0.294674 139.999924
[Rope1_Seg05]
7 139.999832 0.000119 -0.000060 6.164303 -8.963700 20.606812 139.999832
8 139.999832 0.000119 -0.000060 -7.932333 -20.148317 13.392634 139.999832
[Rope1_Seg06]
7 139.999954 0.000119 -0.000060 5.728751 -1.592262 7.057989 139.999954
8 139.999954 0.000119 -0.000060 6.465334 -3.174544 10.745838 139.999954
[Rope1_Seg07]
7 139.999985 0.000060 0.000000 2.439685 -1.120247 3.183911 139.999985
8 139.999985 0.000060 0.000000 0.831793 -2.713409 3.821712 139.999985
[Rope1_Seg09]
7 121.602913 0.000119 -0.000089 -89.793175 -1.359789 0.847147 121.602913
8 121.602913 0.000119 -0.000089 -89.793175 -1.359789 0.847147 121.602913
[L_mid_hand01]
7 103.859421 1.038730 8.195221 107.640724 -35.120052 -10.901268 104.187431
8 103.859421 1.038730 8.195221 104.690979 -12.127199 -3.683529 104.187431
[L_mid_hand02]
7 105.572853 -4.139662 -10.864139 -143.987701 28.191181 -32.423386 106.211075
8 105.572853 -4.139662 -10.864139 -136.986465 12.817510 -12.781226 106.211075
[L_mid_hand03]
7 104.641464 17.579376 -3.913581 -15.413661 10.840238 38.196957 106.179977
8 104.641464 17.579376 -3.913581 -18.393948 3.792097 15.147139 106.179977
[null_rope02_connect]
7 328.732849 0.000179 -0.000119 -118.032936 50.763756 15.650955 328.732849
8 328.732849 0.000179 -0.000119 -108.064896 65.206505 14.165032 328.732849
[Rope2_Seg01]
7 -0.000014 0.000083 0.000094 -53.271599 36.140194 42.101330 0.000126
8 -0.000010 0.000084 0.000090 -51.676991 29.411860 41.901596 0.000124
[Rope2_Seg02]
7 139.999741 -0.000060 -0.000119 -0.776546 -6.108907 5.473442 139.999756
8 139.999741 -0.000060 -0.000119 -0.544584 -2.702818 3.641354 139.999756
[Rope2_Seg03]
7 140.000107 0.000030 0.000000 -0.690669 -5.245579 8.487311 140.000107
8 140.000107 0.000030 0.000000 -0.609905 -4.301824 5.723497 140.000107
[Rope2_Seg04]
7 139.999802 0.000000 -0.000060 -1.124695 -17.248894 11.234935 139.999802
8 139.999802 0.000000 -0.000060 -0.205945 -2.534079 13.602516 139.999802
[Rope2_Seg05]
7 139.999985 -0.000060 0.000119 -5.000735 -20.631702 1.843316 139.999985
8 139.999985 -0.000060 0.000119 -2.956488 -25.421621 10.804708 139.999985
[Rope2_Seg06]
7 139.999893 -0.000030 -0.000119 -2.156373 -6.361739 0.592166 139.999893
8 139.999893 -0.000030 -0.000119 -4.899936 -13.026324 -0.594486 139.999893
[Rope2_Seg07]
7 139.999893 0.000060 -0.000060 -1.406118 -3.413497 0.251389 139.999893
8 139.999893 0.000060 -0.000060 -1.699763 -4.746490 0.443399 139.999893
[Rope2_Seg09]
7 121.338966 0.000089 -0.000060 33.793236 -1.359788 -0.847141 121.338966
8 121.338966 0.000089 -0.000060 33.793236 -1.359788 -0.847141 121.338966
[R_mid_hand01]
7 104.680779 11.144459 -10.335981 -40.238312 27.648584 31.465513 105.778534
8 104.680779 11.144459 -10.335981 -46.282280 11.920233 13.898090 105.778534
[R_mid_hand02]
7 104.070427 2.443552 8.231699 72.145821 -35.985065 11.253941 104.424065
8 104.070427 2.443552 8.231699 75.179291 -14.113796 4.227930 104.424065
[R_mid_hand03]
7 106.028137 -11.221827 -5.996406 -168.523941 10.951766 -40.389626 106.788818
8 106.028137 -11.221827 -5.996406 -165.232071 5.716876 -17.994635 106.788818
[spine02]
7 129.756927 0.001550 0.000119 -0.240917 -4.222524 -4.523976 129.756927
8 129.756927 0.001550 0.000119 -0.236612 -4.234122 -4.583566 129.756927
[spine03]
7 78.644234 0.081902 -4.601091 0.731619 3.737021 -1.592657 78.778748
8 78.649323 0.081005 -4.551475 0.805477 3.584345 -0.878672 78.780952
[pelvis]
7 169.435242 0.051022 0.000000 -0.000836 0.140149 -2.041019 169.435257
8 169.435242 0.051022 0.000000 0.000913 0.220974 -2.097080 169.435257
[null_rope03_connect]
7 -1.257226 -2.466202 137.391083 -103.163338 -89.334412 -145.431641 137.418976
8 -1.257226 -2.466202 137.391083 -107.224274 -89.408844 -141.794876 137.418976
[null_rope04_connect]
7 -1.259640 -2.480268 -137.844437 -103.163338 -89.334412 -145.431641 137.872513
8 -1.259640 -2.480268 -137.844437 -107.224274 -89.408844 -141.794876 137.872513
[Rope3_Seg01]
7 0.000000 0.000000 0.000000 -135.303162 -32.818863 -73.393051 0.000000
8 0.000000 0.000000 0.000000 -136.749619 -35.376305 -71.751854 0.000000
[Rope3_Seg02]
7 139.999924 -0.000119 0.000060 -3.656649 2.930158 -14.449250 139.999924
8 139.999924 -0.000119 0.000060 -3.535275 2.879173 -12.888735 139.999924
[Rope3_Seg03]
7 139.999924 -0.000119 0.000119 -50.195198 14.896069 -58.367073 139.999924
8 139.999924 -0.000119 0.000119 -43.204319 14.655561 -51.854614 139.999924
[Rope3_Seg04]
7 139.999924 0.000119 0.000000 -42.470589 35.489262 -27.149689 139.999924
8 139.999924 0.000119 0.000000 -49.279575 36.478142 -34.125099 139.999924
[Rope3_Seg05]
7 139.999924 -0.000238 0.000060 -12.571915 28.623640 -5.964046 139.999924
8 139.999924 -0.000238 0.000060 -13.304790 30.385759 -6.751938 139.999924
[Rope3_Seg06]
7 139.999893 -0.000119 -0.000060 -2.160862 15.197927 0.022766 139.999893
8 139.999893 -0.000119 -0.000060 -1.856037 14.319171 0.012789 139.999893
[Rope3_Seg07]
7 139.999771 0.000060 -0.000119 0.077458 6.245938 0.481383 139.999771
8 139.999771 0.000060 -0.000119 0.126821 5.849585 0.414221 139.999771
[Rope3_Seg08]
7 139.999985 -0.000060 0.000000 0.439345 3.290058 0.251768 139.999985
8 139.999985 -0.000060 0.000000 0.447639 3.062606 0.211529 139.999985
[Rope3_Seg09]
7 90.185997 -0.000179 -0.000060 89.793228 -1.359877 -0.847183 90.185997
8 90.185997 -0.000179 -0.000060 89.793228 -1.359877 -0.847183 90.185997
[R_rear_hand01]
7 103.366196 -6.073594 -10.757982 -166.970291 21.129854 -46.704182 104.101845
8 103.366196 -6.073594 -10.757982 -166.970291 21.129854 -46.704182 104.101845
[R_rear_hand02]
7 100.509819 12.039542 -7.992327 -28.148870 27.804201 44.102722 101.543350
8 100.509819 12.039542 -7.992327 -28.148870 27.804201 44.102722 101.543350
[R_rear_hand03]
7 101.539970 5.215704 5.435467 81.628380 -47.127724 10.016966 101.819031
8 101.539970 5.215704 5.435467 81.628380 -47.127724 10.016966 101.819031
[Rope4_Seg01]
7 0.000010 0.000038 -0.000114 46.087223 -17.275272 -97.913254 0.000121
8 0.000010 0.000038 -0.000114 46.508118 -20.213856 -99.005791 0.000121
[Rope4_Seg02]
7 139.999985 0.000060 0.000119 1.622873 -22.001156 4.055855 139.999985
8 139.999985 0.000060 0.000119 1.738991 -19.801659 3.831328 139.999985
[Rope4_Seg03]
7 139.999924 0.000000 -0.000238 32.563297 -64.403343 29.752943 139.999924
8 139.999924 0.000000 -0.000238 30.496389 -60.144733 25.227081 139.999924
[Rope4_Seg04]
7 139.999985 0.000000 0.000119 26.784599 -11.043551 24.166138 139.999985
8 139.999985 0.000000 0.000119 30.060776 -14.877383 26.015591 139.999985
[Rope4_Seg05]
7 139.999802 -0.000060 -0.000119 16.374002 -0.471973 25.969946 139.999802
8 139.999802 -0.000060 -0.000119 17.465712 -0.765425 27.991293 139.999802
[Rope4_Seg06]
7 139.999924 0.000000 0.000060 8.901571 6.948563 27.580196 139.999924
8 139.999924 0.000000 0.000060 8.463405 7.197655 27.143669 139.999924
[Rope4_Seg07]
7 139.999802 0.000000 0.000000 1.081531 4.109078 9.861580 139.999802
8 139.999802 0.000000 0.000000 0.949186 3.929413 9.363055 139.999802
[Rope4_Seg08]
7 139.999924 0.000000 0.000119 -1.435682 2.086733 4.805111 139.999924
8 139.999924 0.000000 0.000119 -1.454254 1.980171 4.553554 139.999924
[Rope4_Seg09]
7 90.185791 0.000060 0.000060 -135.617828 2.228885 0.850567 90.185791
8 90.185791 0.000060 0.000060 -135.617828 2.228885 0.850567 90.185791
[L_rear_hand01]
7 101.696655 -8.392275 -7.654577 -27.705481 -28.251705 134.947800 102.329041
8 101.696655 -8.392275 -7.654577 -27.705481 -28.251705 134.947800 102.329041
[L_rear_hand02]
7 102.726799 -1.568258 5.773216 81.477219 48.065086 169.775513 102.900848
8 102.726799 -1.568258 5.773216 81.477219 48.065086 169.775513 102.900848
[L_rear_hand03]
7 104.552910 9.721220 -10.420293 -167.330078 -21.338425 -132.303940 105.519653
8 104.552910 9.721220 -10.420293 -167.330078 -21.338425 -132.303940 105.519653
